<svg width="23" height="23" viewBox="0 0 23 23" fill="none" xmlns="http://www.w3.org/2000/svg">
<path d="M11.5 0.249939C17.6988 0.249939 22.75 5.28994 22.75 11.4999C22.75 17.6987 17.6988 22.7499 11.5 22.7499C5.29 22.7499 0.25 17.6987 0.25 11.4999C0.25 5.28994 5.29 0.249939 11.5 0.249939ZM8.1925 9.28369C7.86625 8.94619 7.32625 8.94619 7 9.27244C6.6625 9.60994 6.6625 10.1387 7 10.4649L10.9038 14.3912C11.0613 14.5487 11.275 14.6387 11.5 14.6387C11.725 14.6387 11.9387 14.5487 12.0962 14.3912L16 10.4649C16.1688 10.3074 16.2475 10.0937 16.2475 9.87994C16.2475 9.65494 16.1688 9.44119 16 9.27244C15.6625 8.94619 15.1337 8.94619 14.8075 9.28369L11.5 12.6024L8.1925 9.28369Z" fill="#79778A"/>
</svg>
